<?xml version="1.0" standalone="no"?>
<!DOCTYPE svg PUBLIC "-//W3C//DTD SVG 20010904//EN"
 "http://www.w3.org/TR/2001/REC-SVG-20010904/DTD/svg10.dtd">
<svg version="1.0" xmlns="http://www.w3.org/2000/svg"
 width="435.000000pt" height="435.000000pt" viewBox="0 0 435.000000 435.000000"
 preserveAspectRatio="xMidYMid meet">
<metadata>
Created by potrace 1.15, written by Peter Selinger 2001-2017
</metadata>
<g transform="translate(0.000000,435.000000) scale(0.100000,-0.100000)"
fill="#000000" stroke="none">
<path d="M898 4293 l-848 -3 0 -2125 0 -2125 2120 0 2120 0 0 2130 0 2130
-1272 -2 c-700 -2 -1654 -4 -2120 -5z m3362 -2123 l0 -2090 -2090 0 -2090 0 0
2090 0 2090 2090 0 2090 0 0 -2090z"/>
<path d="M3645 4032 c-203 -97 -143 -392 80 -392 126 0 226 107 212 226 -14
130 -176 221 -292 166z m118 -23 c43 -12 101 -59 123 -100 33 -65 8 -152 -59
-200 -49 -35 -95 -45 -142 -29 -76 25 -127 91 -127 165 0 71 30 113 107 153
47 25 49 25 98 11z"/>
<path d="M660 2122 l0 -1829 1022 -6 c562 -4 1176 -7 1365 -7 l343 0 0 1835 0
1835 -1365 0 -1365 0 0 -1828z m2600 298 l0 -1440 -1235 0 -1235 0 0 1440 0
1440 1235 0 1235 0 0 -1440z m100 -1825 l0 -275 -1335 0 -1335 0 0 275 0 275
1335 0 1335 0 0 -275z"/>
<path d="M1210 3485 l0 -115 95 0 c88 0 95 1 95 20 0 18 -7 20 -65 20 l-65 0
0 35 0 35 50 0 c43 0 50 3 50 20 0 17 -7 20 -50 20 -43 0 -50 3 -50 20 0 18 7
20 65 20 58 0 65 2 65 20 0 19 -7 20 -95 20 l-95 0 0 -115z"/>
<path d="M1440 3565 c0 -24 5 -35 15 -35 8 0 15 -7 15 -15 0 -8 7 -15 15 -15
8 0 15 -7 15 -15 0 -8 -7 -15 -15 -15 -8 0 -15 -7 -15 -15 0 -8 -7 -15 -15
-15 -10 0 -15 -11 -15 -35 0 -31 3 -35 25 -35 20 0 25 5 25 25 0 16 6 25 15
25 8 0 15 7 15 15 0 8 7 15 15 15 8 0 15 -7 15 -15 0 -8 7 -15 15 -15 9 0 15
-9 15 -25 0 -20 5 -25 25 -25 21 0 25 5 25 28 0 26 -29 62 -50 62 -6 0 -10 9
-10 20 0 11 7 20 15 20 8 0 15 7 15 15 0 8 7 15 15 15 10 0 15 11 15 35 0 31
-3 35 -25 35 -20 0 -25 -5 -25 -25 0 -16 -6 -25 -15 -25 -8 0 -15 -7 -15 -15
0 -8 -7 -15 -15 -15 -8 0 -15 5 -15 10 0 6 -7 10 -15 10 -10 0 -15 10 -15 30
0 25 -4 30 -25 30 -22 0 -25 -4 -25 -35z"/>
<path d="M1670 3485 l0 -115 95 0 c88 0 95 1 95 20 0 18 -7 20 -65 20 l-65 0
0 30 c0 28 3 30 35 30 28 0 35 4 35 20 0 16 -7 20 -35 20 -31 0 -35 3 -35 25
0 24 2 25 65 25 58 0 65 2 65 20 0 19 -7 20 -95 20 l-95 0 0 -115z"/>
<path d="M1930 3585 c0 -8 -7 -15 -15 -15 -12 0 -15 -16 -15 -85 0 -69 3 -85
15 -85 8 0 15 -7 15 -15 0 -12 14 -15 65 -15 51 0 65 3 65 15 0 8 7 15 16 15
24 0 12 35 -14 38 -15 2 -22 -2 -22 -12 0 -12 -11 -16 -45 -16 l-45 0 0 75 0
75 45 0 c33 0 45 -4 45 -15 0 -9 9 -15 25 -15 18 0 25 5 25 20 0 11 -7 20 -15
20 -8 0 -15 7 -15 15 0 12 -14 15 -65 15 -51 0 -65 -3 -65 -15z"/>
<path d="M2130 3500 c0 -82 3 -100 15 -100 8 0 15 -7 15 -15 0 -12 14 -15 65
-15 51 0 65 3 65 15 0 8 7 15 15 15 12 0 15 18 15 100 l0 100 -25 0 c-25 0
-25 0 -25 -95 l0 -95 -45 0 -45 0 0 95 c0 95 0 95 -25 95 l-25 0 0 -100z"/>
<path d="M2360 3580 c0 -15 7 -20 25 -20 25 0 25 0 25 -95 l0 -95 30 0 30 0 0
95 c0 95 0 95 25 95 18 0 25 5 25 20 0 18 -7 20 -80 20 -73 0 -80 -2 -80 -20z"/>
<path d="M2560 3485 l0 -115 95 0 c88 0 95 1 95 20 0 18 -7 20 -65 20 l-65 0
0 30 c0 28 3 30 35 30 28 0 35 4 35 20 0 16 -7 20 -35 20 -31 0 -35 3 -35 25
0 24 2 25 65 25 58 0 65 2 65 20 0 19 -7 20 -95 20 l-95 0 0 -115z"/>
<path d="M900 2525 l0 -115 25 0 c25 0 25 1 26 83 1 45 3 74 6 65 3 -13 14
-18 38 -18 24 0 35 5 38 18 3 9 5 -20 6 -65 1 -82 1 -83 26 -83 l25 0 0 115 0
115 -25 0 c-16 0 -25 -6 -25 -15 0 -8 -7 -15 -15 -15 -8 0 -15 -4 -15 -10 0
-5 -7 -10 -15 -10 -8 0 -15 5 -15 10 0 6 -7 10 -15 10 -8 0 -15 7 -15 15 0 9
-9 15 -25 15 l-25 0 0 -115z"/>
<path d="M1160 2625 c0 -8 -7 -15 -15 -15 -12 0 -15 -18 -15 -100 l0 -100 25
0 c23 0 25 4 25 40 l0 40 45 0 45 0 0 -40 c0 -36 3 -40 25 -40 l25 0 0 100 c0
82 -3 100 -15 100 -8 0 -15 7 -15 15 0 12 -14 15 -65 15 -51 0 -65 -3 -65 -15z"/>
<path d="M1360 2525 l0 -115 25 0 c25 0 25 1 26 83 0 45 3 75 6 67 8 -20 29
-40 42 -40 6 0 11 -7 11 -15 0 -8 7 -15 15 -15 11 0 15 -11 15 -40 0 -36 3
-40 25 -40 l25 0 0 115 0 115 -25 0 c-24 0 -25 -3 -26 -57 0 -32 -3 -51 -6
-43 -8 20 -29 40 -42 40 -6 0 -11 7 -11 15 0 8 -7 15 -15 15 -8 0 -15 7 -15
15 0 9 -9 15 -25 15 l-25 0 0 -115z"/>
<path d="M1590 2540 c0 -82 3 -100 15 -100 8 0 15 -7 15 -15 0 -12 14 -15 65
-15 51 0 65 3 65 15 0 8 7 15 15 15 12 0 15 18 15 100 l0 100 -25 0 c-25 0
-25 0 -25 -95 l0 -95 -45 0 -45 0 0 95 c0 95 0 95 -25 95 l-25 0 0 -100z"/>
<path d="M1850 2625 c0 -8 -7 -15 -15 -15 -12 0 -15 -18 -15 -100 l0 -100 25
0 c23 0 25 4 25 40 l0 40 45 0 45 0 0 -40 c0 -36 3 -40 25 -40 l25 0 0 100 c0
82 -3 100 -15 100 -8 0 -15 7 -15 15 0 12 -14 15 -65 15 -51 0 -65 -3 -65 -15z"/>
<path d="M2050 2525 l0 -115 80 0 c73 0 80 2 80 20 0 18 -7 20 -55 20 l-55 0
0 95 c0 95 0 95 -25 95 l-25 0 0 -115z"/>
<path d="M2360 2525 l0 -115 95 0 c88 0 95 1 95 20 0 18 -7 20 -65 20 l-65 0
0 30 c0 28 3 30 35 30 28 0 35 4 35 20 0 16 -7 20 -35 20 -31 0 -35 3 -35 25
0 24 2 25 65 25 58 0 65 2 65 20 0 19 -7 20 -95 20 l-95 0 0 -115z"/>
<path d="M2590 2605 c0 -24 5 -35 15 -35 8 0 15 -7 15 -15 0 -8 7 -15 15 -15
8 0 15 -7 15 -15 0 -8 -7 -15 -15 -15 -8 0 -15 -7 -15 -15 0 -8 -7 -15 -15
-15 -10 0 -15 -11 -15 -35 0 -31 3 -35 25 -35 20 0 25 5 25 25 0 16 6 25 15
25 8 0 15 7 15 15 0 8 7 15 15 15 8 0 15 -7 15 -15 0 -8 7 -15 15 -15 9 0 15
-9 15 -25 0 -20 5 -25 25 -25 21 0 25 5 25 28 0 26 -29 62 -50 62 -6 0 -10 9
-10 20 0 11 7 20 15 20 8 0 15 7 15 15 0 8 7 15 15 15 10 0 15 11 15 35 0 31
-3 35 -25 35 -20 0 -25 -5 -25 -25 0 -16 -6 -25 -15 -25 -8 0 -15 -7 -15 -15
0 -8 -7 -15 -15 -15 -8 0 -15 5 -15 10 0 6 -7 10 -15 10 -10 0 -15 10 -15 30
0 25 -4 30 -25 30 -22 0 -25 -4 -25 -35z"/>
<path d="M2820 2525 l0 -115 95 0 c88 0 95 1 95 20 0 18 -7 20 -65 20 l-65 0
0 30 c0 28 3 30 35 30 28 0 35 4 35 20 0 16 -7 20 -35 20 -31 0 -35 3 -35 25
0 24 2 25 65 25 58 0 65 2 65 20 0 19 -7 20 -95 20 l-95 0 0 -115z"/>
<path d="M750 610 l0 -230 510 0 510 0 0 230 0 230 -510 0 -510 0 0 -230z
m980 10 l0 -200 -475 0 -475 0 0 200 0 200 475 0 475 0 0 -200z"/>
<path d="M871 741 c-10 -7 -14 -36 -14 -116 0 -121 2 -125 71 -125 38 0 42 2
42 25 0 20 -5 25 -25 25 -22 0 -25 4 -25 34 0 19 -6 37 -12 39 -10 4 -10 6 0
6 7 1 12 15 12 36 0 31 3 35 25 35 20 0 25 5 25 25 0 23 -4 25 -42 25 -24 0
-49 -4 -57 -9z"/>
<path d="M1150 682 c0 -40 5 -73 12 -80 7 -7 36 -12 65 -12 46 0 53 -3 53 -20
0 -17 -7 -20 -40 -20 -22 0 -40 5 -40 10 0 6 -12 10 -26 10 -23 0 -25 -3 -22
-32 l3 -33 70 -3 c120 -5 115 -11 115 128 l0 120 -30 0 c-29 0 -30 -1 -30 -50
l0 -50 -40 0 -40 0 0 50 c0 47 -2 50 -25 50 -24 0 -25 -2 -25 -68z"/>
<path d="M1510 726 c0 -21 5 -26 25 -26 22 0 25 -4 25 -34 0 -19 6 -37 13 -39
10 -4 10 -6 0 -6 -8 -1 -13 -15 -13 -36 0 -31 -3 -35 -25 -35 -20 0 -25 -5
-25 -26 0 -24 2 -25 53 -22 l52 3 3 40 c2 22 8 44 13 50 12 12 12 55 0 55 -6
0 -11 21 -13 48 l-3 47 -52 3 c-51 3 -53 2 -53 -22z"/>
<path d="M2280 610 l0 -230 510 0 510 0 0 230 0 230 -510 0 -510 0 0 -230z
m980 10 l0 -200 -465 0 -465 0 0 200 0 200 465 0 465 0 0 -200z"/>
<path d="M2411 741 c-10 -7 -14 -36 -14 -116 0 -121 2 -125 71 -125 38 0 42 2
42 25 0 20 -5 25 -25 25 -22 0 -25 4 -25 34 0 19 -6 37 -12 39 -10 4 -10 6 0
6 7 1 12 15 12 36 0 31 3 35 25 35 20 0 25 5 25 25 0 23 -4 25 -42 25 -24 0
-49 -4 -57 -9z"/>
<path d="M2690 625 l0 -125 25 0 c24 0 25 2 25 66 0 58 2 64 15 50 8 -8 15
-19 15 -25 0 -6 4 -11 9 -11 5 0 13 -15 16 -32 9 -38 20 -48 58 -48 l27 0 0
125 0 125 -30 0 -30 0 -1 -67 c0 -60 -2 -65 -12 -43 -6 14 -14 27 -17 30 -3 3
-12 19 -20 35 -18 37 -29 45 -57 45 -23 0 -23 -2 -23 -125z"/>
<path d="M3050 726 c0 -21 5 -26 25 -26 22 0 25 -4 25 -34 0 -19 6 -37 13 -39
10 -4 10 -6 0 -6 -8 -1 -13 -15 -13 -36 0 -31 -3 -35 -25 -35 -20 0 -25 -5
-25 -26 0 -24 2 -25 53 -22 l52 3 3 40 c2 22 8 44 13 50 12 12 12 55 0 55 -6
0 -11 21 -13 48 l-3 47 -52 3 c-51 3 -53 2 -53 -22z"/>
</g>
</svg>
