<?xml version="1.0" standalone="no"?>
<!DOCTYPE svg PUBLIC "-//W3C//DTD SVG 20010904//EN"
 "http://www.w3.org/TR/2001/REC-SVG-20010904/DTD/svg10.dtd">
<svg version="1.0" xmlns="http://www.w3.org/2000/svg"
 width="348.000000pt" height="348.000000pt" viewBox="0 0 348.000000 348.000000"
 preserveAspectRatio="xMidYMid meet">
<metadata>
Created by potrace 1.15, written by Peter Selinger 2001-2017
</metadata>
<g transform="translate(0.000000,348.000000) scale(0.100000,-0.100000)"
fill="#000000" stroke="none">
<path d="M40 1735 l0 -1695 1695 0 1695 0 0 1695 0 1695 -1695 0 -1695 0 0
-1695z m3370 0 l0 -1675 -1675 0 -1675 0 0 1675 0 1675 1675 0 1675 0 0 -1675z"/>
<path d="M1340 3035 l0 -285 375 0 375 0 0 285 0 285 -375 0 -375 0 0 -285z
m318 148 c29 -29 42 -71 42 -136 0 -78 -15 -134 -40 -147 -36 -19 -97 -12
-127 16 -27 25 -28 29 -28 123 0 94 1 98 30 129 35 37 94 44 123 15z m222 7
c0 -5 7 -10 15 -10 9 0 19 -8 22 -17 4 -10 11 -21 17 -25 16 -11 15 -190 -1
-195 -7 -3 -13 -11 -13 -18 0 -20 -33 -35 -75 -35 -74 0 -95 35 -95 157 0 74
8 103 39 135 17 18 91 25 91 8z"/>
<path d="M1590 3160 c0 -5 -5 -10 -11 -10 -28 0 -39 -30 -39 -109 0 -45 4 -81
9 -81 5 0 12 -11 15 -25 5 -18 13 -25 31 -25 14 0 25 5 25 10 0 6 7 10 15 10
8 0 15 7 15 15 0 8 5 15 10 15 6 0 10 34 10 83 0 79 -1 84 -25 97 -14 7 -25
17 -25 22 0 4 -7 8 -15 8 -8 0 -15 -4 -15 -10z"/>
<path d="M1805 3150 c-3 -11 -11 -20 -16 -20 -5 0 -9 -38 -9 -85 0 -47 4 -85
9 -85 5 0 12 -11 15 -25 4 -16 13 -25 26 -25 23 0 60 29 60 47 0 7 5 13 10 13
6 0 10 30 10 71 0 65 -2 73 -29 100 -34 34 -67 38 -76 9z"/>
<path d="M2160 3035 l0 -285 560 0 560 0 0 285 0 285 -560 0 -560 0 0 -285z
m308 153 c-45 -62 -124 -171 -176 -243 -52 -71 -98 -134 -103 -139 -5 -6 -9
96 -9 242 l0 252 185 0 185 0 -82 -112z m295 100 c-6 -7 -92 -127 -192 -265
l-183 -253 -95 0 c-62 0 -93 4 -91 11 2 5 86 125 188 265 l184 254 99 0 c78 0
97 -3 90 -12z m227 7 c0 -2 -85 -120 -188 -262 l-188 -258 -98 -3 c-55 -1 -96
1 -94 6 1 5 86 124 188 265 l185 256 98 0 c53 1 97 -1 97 -4z m220 -1 c0 -4
-84 -123 -187 -265 l-188 -259 -98 0 c-76 0 -96 3 -91 13 4 6 91 126 192 265
l183 252 95 0 c52 0 94 -3 94 -6z m50 -259 l0 -265 -196 0 c-159 0 -195 3
-191 13 9 25 370 517 379 517 4 0 8 -119 8 -265z"/>
<path d="M140 3025 l0 -285 560 0 560 0 0 285 0 285 -560 0 -560 0 0 -285z
m384 253 c-21 -34 -347 -479 -355 -483 -5 -4 -9 94 -9 244 l0 251 186 0 c145
0 184 -3 178 -12z m224 4 c-1 -5 -86 -124 -188 -265 l-185 -256 -99 -1 -98 0
18 28 c26 39 334 464 352 485 12 14 32 17 109 17 52 0 93 -4 91 -8z m202 -34
c-17 -24 -104 -143 -193 -265 l-161 -223 -99 0 c-78 0 -97 3 -90 13 5 6 92
126 193 265 l183 252 99 0 100 0 -32 -42z m243 29 c-4 -8 -90 -127 -191 -265
l-184 -252 -95 0 c-58 0 -93 4 -91 10 2 5 86 125 188 265 l185 255 98 0 c79 0
96 -3 90 -13z m47 -252 l0 -265 -196 0 c-108 0 -194 4 -192 8 8 20 374 521
381 522 4 0 7 -119 7 -265z"/>
<path d="M215 2628 c-3 -13 -4 -538 -3 -1168 l3 -1145 785 -2 c432 -1 1121 1
1533 4 l747 6 -2 1161 -3 1161 -1527 3 -1528 2 -5 -22z m2685 -68 l0 -70 140
0 140 0 0 70 0 70 40 0 40 0 0 -120 0 -120 -1515 0 -1515 0 0 120 0 120 1335
0 1335 0 0 -70z m-1880 -760 c0 -29 -2 -30 -45 -30 l-45 0 0 -200 0 -200 45 0
c45 0 45 0 45 -35 l0 -35 -100 0 -100 0 0 265 0 265 100 0 100 0 0 -30z m360
-30 l0 -60 -30 0 c-27 0 -30 3 -30 30 0 23 -4 30 -20 30 -19 0 -20 -7 -20
-200 l0 -200 30 0 c28 0 30 -3 30 -35 l0 -35 -110 0 -110 0 0 35 c0 31 3 35
25 35 l25 0 0 200 c0 193 -1 200 -20 200 -16 0 -20 -7 -20 -30 0 -25 -4 -30
-25 -30 -24 0 -25 3 -25 60 l0 60 150 0 150 0 0 -60z m1400 -205 l0 -265 -110
0 -110 0 0 35 0 35 55 0 55 0 0 200 0 200 -55 0 c-54 0 -55 0 -55 30 l0 30
110 0 110 0 0 -265z m-410 150 l0 -55 75 0 75 0 0 -30 0 -30 -75 0 -75 0 0
-115 c0 -108 1 -115 20 -115 16 0 20 7 20 30 0 30 1 30 55 30 54 0 55 0 55
-30 0 -21 -5 -30 -16 -30 -22 0 -44 -25 -44 -49 0 -19 -6 -21 -75 -21 -67 0
-75 2 -75 19 0 33 -11 51 -31 51 -18 0 -19 9 -19 115 l0 115 -30 0 c-27 0 -30
3 -30 30 0 27 3 30 30 30 25 0 30 4 30 24 0 18 6 25 23 28 16 2 23 11 25 31 3
23 8 27 33 27 29 0 29 -1 29 -55z m-670 -85 c0 -25 4 -30 25 -30 24 0 25 -2
25 -65 l0 -65 -105 0 -105 0 0 -50 0 -50 50 0 c49 0 50 1 50 30 0 30 1 30 55
30 54 0 55 0 55 -30 0 -25 -4 -30 -25 -30 -22 0 -25 -4 -25 -35 l0 -35 -105 0
c-97 0 -105 1 -105 19 0 35 -12 51 -36 51 -24 0 -24 0 -24 115 l0 115 30 0
c27 0 30 3 30 30 l0 30 105 0 105 0 0 -30z m200 0 c0 -27 3 -30 30 -30 27 0
30 -3 30 -30 0 -23 4 -30 20 -30 16 0 20 7 20 30 0 25 4 30 25 30 21 0 25 5
25 30 0 30 1 30 55 30 54 0 55 0 55 -30 0 -25 -4 -30 -25 -30 -21 0 -25 -5
-25 -30 0 -27 -3 -30 -30 -30 -30 0 -30 -1 -30 -55 0 -54 0 -55 30 -55 27 0
30 -3 30 -30 0 -25 4 -30 25 -30 22 0 25 -4 25 -35 l0 -35 -55 0 -55 0 0 35
c0 31 -3 35 -25 35 -18 0 -25 5 -25 20 0 13 -7 20 -20 20 -13 0 -20 -7 -20
-20 0 -16 -7 -20 -30 -20 -28 0 -30 -3 -30 -35 l0 -35 -55 0 -55 0 0 35 c0 32
2 35 30 35 27 0 30 3 30 30 0 25 4 30 25 30 24 0 25 3 25 55 0 52 -1 55 -25
55 -21 0 -25 5 -25 30 0 27 -3 30 -30 30 -27 0 -30 3 -30 30 0 30 1 30 55 30
54 0 55 0 55 -30z"/>
<path d="M1530 1545 l0 -55 70 0 70 0 0 55 0 55 -70 0 -70 0 0 -55z"/>
</g>
</svg>
